<svg width="89" height="88" viewBox="0 0 89 88" fill="none" xmlns="http://www.w3.org/2000/svg">
<path d="M16.404 17.6001C21.2611 17.6001 25.1986 13.6602 25.1986 8.80005C25.1986 3.93992 21.2611 0 16.404 0C11.5469 0 7.60938 3.93992 7.60938 8.80005C7.61422 13.6582 11.5489 17.5952 16.404 17.6001ZM16.404 2.93335C19.6421 2.93335 22.2671 5.55996 22.2671 8.80005C22.2671 12.0401 19.6421 14.6667 16.404 14.6667C13.1659 14.6667 10.5409 12.0401 10.5409 8.80005C10.5409 5.55996 13.1659 2.93335 16.404 2.93335Z" fill="#53A1F6"/>
<path d="M6.14425 52.5501V83.598C6.14425 86.0281 8.11297 87.998 10.5415 87.998C12.97 87.998 14.9387 86.0281 14.9387 83.598V60.1313H17.8702V83.598C17.8702 86.0281 19.839 87.998 22.2675 87.998C24.696 87.998 26.6647 86.0281 26.6647 83.598V52.5472C28.8268 53.2933 31.201 52.2686 32.1423 50.1829C32.6989 50.4591 33.3121 50.6017 33.9334 50.5994L32.6025 54.2001C32.0952 55.5842 32.3117 57.1303 33.1798 58.3215C34.0479 59.5127 35.4529 60.1916 36.925 60.1313V83.598C36.9167 84.7603 37.3794 85.8762 38.2075 86.6912C39.486 87.9642 41.4108 88.329 43.066 87.6119C44.7212 86.8948 45.7724 85.2407 45.7195 83.4367V60.1313H48.651V83.598C48.6427 84.7603 49.1054 85.8762 49.9335 86.6912C51.212 87.9642 53.1368 88.329 54.792 87.6119C56.4472 86.8948 57.4984 85.2407 57.4455 83.4367V61.8092C58.3897 62.6731 59.6666 63.0766 60.9354 62.9121L60.5529 64.7689C60.1665 66.0981 60.4277 67.5317 61.258 68.6389C62.0883 69.7461 63.3909 70.3977 64.7742 70.398V83.598C64.7705 85.3302 65.7884 86.9015 67.3701 87.6053C68.9519 88.3091 70.7997 88.0128 72.0825 86.8496C73.3955 88.025 75.2817 88.3057 76.8797 87.5636C78.4778 86.8214 79.4812 85.1989 79.4317 83.4367V70.398C80.7949 70.3974 82.0806 69.7642 82.9127 68.6839C83.7448 67.6035 84.0291 66.1981 83.6824 64.8789L83.2735 62.918C84.7418 63.105 86.2057 62.5401 87.1685 61.4152C88.1313 60.2902 88.4638 58.7559 88.0533 57.3329L84.9752 46.4121C84.0823 43.2523 81.2022 41.0692 77.9206 41.0646C65.2785 41.0646 65.3151 40.8578 63.3906 41.688L57.3106 25.317C56.2398 22.4454 53.5022 20.5388 50.4392 20.5312H43.9313C40.8686 20.5386 38.1312 22.4446 37.0598 25.3155L32.5277 37.5241V29.3313C32.5229 24.4732 28.5883 20.5361 23.7332 20.5312H9.07575C4.22069 20.5361 0.286098 24.4732 0.28125 29.3313V48.398C0.284049 49.8255 0.977422 51.1633 2.14191 51.988C3.3064 52.8127 4.79787 53.0222 6.14425 52.5501ZM77.9206 43.998C79.8882 43.9969 81.6171 45.3039 82.1536 47.1982L85.2317 58.1367C85.3416 58.5198 85.2919 58.9311 85.094 59.277C84.896 59.6229 84.5666 59.8739 84.1808 59.9729C83.4609 60.1588 82.7183 59.7643 82.4688 59.0636L80.8565 52.4489C80.6638 51.662 79.8701 51.1803 79.0836 51.3731C78.2972 51.5659 77.8158 52.3601 78.0085 53.147C79.9726 61.1785 79.335 58.3508 80.8389 65.5844C80.9692 66.028 80.8828 66.507 80.6059 66.8771C80.3289 67.2472 79.8938 67.4649 79.4317 67.4647C77.8127 67.4647 76.5002 68.778 76.5002 70.398V83.4367C76.5229 84.2362 75.9475 84.9277 75.1576 85.05C74.7506 85.0844 74.3476 84.9472 74.046 84.6715C73.7444 84.3959 73.5714 84.0068 73.5687 83.598V68.9313C73.5687 68.1213 72.9125 67.4647 72.103 67.4647C71.2935 67.4647 70.6372 68.1213 70.6372 68.9313V83.4367C70.6891 84.0532 70.3514 84.6367 69.7913 84.8986C69.2311 85.1605 68.5672 85.0453 68.1279 84.61C67.8558 84.3439 67.7035 83.9787 67.7057 83.598V70.398C67.7057 68.778 66.3933 67.4647 64.7742 67.4647C64.2925 67.4618 63.8424 67.2243 63.5678 66.8281C63.2933 66.432 63.2288 65.9269 63.395 65.4744C64.8607 58.3787 64.2334 61.1785 66.1975 53.147C66.3357 52.6334 66.1852 52.0852 65.8041 51.7143C65.4231 51.3434 64.8712 51.208 64.3619 51.3606C63.8526 51.5131 63.4658 51.9295 63.351 52.4489L61.7387 59.0577C61.427 59.7426 60.6479 60.0803 59.9355 59.8394C59.223 59.5985 58.8083 58.8571 58.9757 58.1235L62.0538 47.1938C62.5917 45.3023 64.3186 43.9976 66.284 43.998H77.9206ZM32.6289 45.6817L39.8111 26.3349C40.4525 24.6124 42.0943 23.4687 43.9313 23.4646H50.4392C52.2774 23.4686 53.9203 24.6129 54.5624 26.3363L60.9076 43.4245C60.119 44.2689 59.5436 45.2897 59.2293 46.4018C59.0417 47.0706 59.1003 46.9885 59.0168 46.7641C58.9904 46.6174 59.137 47.0926 52.9574 30.2905C52.6657 29.5477 51.8341 29.1746 51.0859 29.4508C50.3376 29.7269 49.9474 30.5511 50.2076 31.3054C51.2806 34.2197 56.6569 48.8218 57.7269 51.7376C55.7159 58.8773 56.2348 57.0279 56.1146 57.5324C55.1371 58.0308 54.5195 59.0336 54.514 60.1313V83.4367C54.5658 84.0532 54.2282 84.6367 53.668 84.8986C53.1079 85.1605 52.444 85.0453 52.0046 84.61C51.7326 84.3439 51.5802 83.9787 51.5825 83.598V60.1313C51.5825 58.5113 50.27 57.198 48.651 57.198H45.7195C44.1005 57.198 42.788 58.5113 42.788 60.1313V83.4367C42.8398 84.0532 42.5022 84.6367 41.9421 84.8986C41.3819 85.1605 40.718 85.0453 40.2786 84.61C40.0066 84.3439 39.8542 83.9787 39.8565 83.598V60.1313C39.8565 58.5113 38.544 57.198 36.925 57.198H36.7345C36.2534 57.1962 35.8034 56.96 35.5285 56.565C35.2537 56.1699 35.1884 55.6656 35.3537 55.2136C40.3622 41.622 39.1647 44.8956 44.1629 31.3069C44.4231 30.5525 44.0329 29.7284 43.2846 29.4522C42.5364 29.176 41.7048 29.5492 41.4131 30.2919L35.3581 46.7377C35.0445 47.4583 34.2189 47.8034 33.4861 47.5202C32.7534 47.237 32.3741 46.4262 32.6259 45.6817H32.6289ZM3.21275 29.3313C3.21275 26.0912 5.8377 23.4646 9.07575 23.4646H23.7332C26.9713 23.4646 29.5962 26.0912 29.5962 29.3313V48.398C29.5962 49.208 28.94 49.8646 28.1305 49.8646C27.321 49.8646 26.6647 49.208 26.6647 48.398V35.1979C26.6647 34.3879 26.0085 33.7313 25.199 33.7313C24.3895 33.7313 23.7332 34.3879 23.7332 35.1979V83.598C23.7332 84.4081 23.077 85.0647 22.2675 85.0647C21.458 85.0647 20.8017 84.4081 20.8017 83.598V60.1313C20.8017 58.5113 19.4893 57.198 17.8702 57.198H14.9387C13.3197 57.198 12.0072 58.5113 12.0072 60.1313V83.598C12.0072 84.4081 11.351 85.0647 10.5415 85.0647C9.73199 85.0647 9.07575 84.4081 9.07575 83.598V35.1979C9.07575 34.3879 8.41951 33.7313 7.61 33.7313C6.80049 33.7313 6.14425 34.3879 6.14425 35.1979V48.398C6.14425 49.208 5.48801 49.8646 4.6785 49.8646C3.86899 49.8646 3.21275 49.208 3.21275 48.398V29.3313Z" fill="#111974"/>
<path d="M47.1851 17.6001C52.0422 17.6001 55.9796 13.6602 55.9796 8.80005C55.9796 3.93992 52.0422 0 47.1851 0C42.3281 0 38.3906 3.93992 38.3906 8.80005C38.3955 13.6582 42.3301 17.5952 47.1851 17.6001ZM47.1851 2.93335C50.4232 2.93335 53.0481 5.55996 53.0481 8.80005C53.0481 12.0401 50.4232 14.6667 47.1851 14.6667C43.9471 14.6667 41.3221 12.0401 41.3221 8.80005C41.3221 5.55996 43.9471 2.93335 47.1851 2.93335Z" fill="#53A1F6"/>
<path d="M72.1021 38.1353C76.1496 38.1353 79.4308 34.852 79.4308 30.802C79.4308 26.752 76.1496 23.4688 72.1021 23.4688C68.0546 23.4688 64.7734 26.752 64.7734 30.802C64.7783 34.85 68.0566 38.1304 72.1021 38.1353ZM72.1021 26.4021C74.5306 26.4021 76.4993 28.372 76.4993 30.802C76.4993 33.232 74.5306 35.202 72.1021 35.202C69.6736 35.202 67.7049 33.232 67.7049 30.802C67.7049 28.372 69.6736 26.4021 72.1021 26.4021Z" fill="#53A1F6"/>
</svg>
