<svg width="89" height="88" viewBox="0 0 89 88" fill="none" xmlns="http://www.w3.org/2000/svg">
<path d="M51.9922 57.5C51.9922 57.8472 51.6512 58.472 50.3726 59.0687C49.1753 59.6275 47.4508 60 45.4922 60C43.5335 60 41.8091 59.6275 40.6118 59.0687C39.3332 58.472 38.9922 57.8472 38.9922 57.5C38.9922 57.1528 39.3332 56.528 40.6118 55.9313C41.8091 55.3725 43.5335 55 45.4922 55C47.4508 55 49.1753 55.3725 50.3726 55.9313C51.6512 56.528 51.9922 57.1528 51.9922 57.5Z" stroke="#53A1F6" stroke-width="2"/>
<path d="M79.2811 71.0453L60.6192 69.08V58.1753C64.9563 53.6697 65.2158 49.7156 64.9549 44.1804C67.8133 42.3825 69.847 39.5284 70.6141 36.2384C70.9577 34.1989 71.0007 32.1201 70.7417 30.0681C72.8758 22.8991 72.8802 17.7188 70.7417 11.7201C66.5775 0.133468 45.2127 0 44.3054 0C31.7219 0 27.4361 4.41173 26.0158 7.01507C25.9668 7.12694 25.8627 7.20489 25.7417 7.2204C16.0282 8.0476 15.03 20.6184 18.325 29.6927C17.9851 31.8813 18.0059 34.1108 18.3865 36.2927C19.1668 39.559 21.1953 42.3891 24.037 44.176C23.7893 49.7655 24.0223 53.6507 28.3727 58.1695V69.08L9.71077 71.0453C4.48431 71.585 0.514504 75.9958 0.523453 81.2533V85.0667C0.523453 86.6867 1.83593 88 3.45495 88H85.5369C87.156 88 88.4684 86.6867 88.4684 85.0667V81.2533C88.4774 75.9958 84.5076 71.585 79.2811 71.0453ZM33.4794 64.6081C37.6949 71.1964 38.9408 70.4 47.4055 70.4C53.1101 70.4 54.2197 65.9868 57.6877 61.4431V70.0231C54.4015 74.4993 34.5288 74.4231 31.3042 70.048V61.4431C32.1426 62.5431 32.8432 63.6137 33.4794 64.6081ZM56.3084 74.4568C54.7679 76.7668 51.4993 79.2 44.4959 79.2C37.5805 79.2 34.3075 76.7844 32.7421 74.4817C38.5377 76.8797 50.5055 76.8871 56.3084 74.4568ZM67.7237 35.7661C67.2648 37.5862 66.2895 39.2345 64.9153 40.5123C65.0897 37.51 65.9618 35.2323 66.3224 29.6237C66.6549 29.3725 67.0736 29.2638 67.4862 29.3216C67.9992 29.8863 68.1077 32.9897 67.7237 35.7661ZM26.0026 10.1435C27.0881 10.0393 28.0515 9.40374 28.575 8.44653C29.4793 6.7892 32.8227 2.93333 44.3054 2.93333C44.5077 2.93333 64.5151 3.05947 67.9875 12.7087C69.6523 17.172 69.8743 22.0457 68.6222 26.642C67.9303 26.3809 67.1786 26.3214 66.4543 26.4704C66.4661 25.9703 66.4778 25.4731 66.4807 24.9275C66.4913 22.26 64.8843 19.8526 62.4177 18.8408C53.5763 15.2035 35.4273 15.1976 26.5742 18.8408C24.1031 19.8546 22.4948 22.2683 22.5097 24.9407C22.5097 25.4848 22.5244 25.9776 22.5361 26.4763C21.8399 26.3346 21.1184 26.3853 20.4489 26.6229C18.7266 20.0303 19.03 10.736 26.0026 10.1435ZM21.2785 35.8321C21.0077 33.9728 20.9658 32.0873 21.1539 30.2177C21.2471 30.0245 21.2971 29.8133 21.3005 29.5988C21.3224 29.5258 21.3534 29.4558 21.3928 29.3905C21.8323 29.2771 22.2994 29.3646 22.668 29.6296C23.0242 35.1633 23.9022 37.5305 24.0751 40.5152C22.7155 39.2531 21.7451 37.6282 21.2785 35.8321ZM26.9597 44.4855C27.3599 35.772 25.5057 36.4672 25.4412 24.9333C25.433 23.4561 26.3213 22.1217 27.6867 21.56C35.8216 18.2145 53.1658 18.2131 61.3022 21.56C62.6693 22.1201 63.5592 23.4552 63.5507 24.9333C63.4906 36.0932 61.6452 36.0375 62.0336 44.4943C62.2623 49.5909 62.1069 52.6973 58.0307 56.6412C52.2058 62.2571 52.1603 67.4667 47.4055 67.4667C39.3438 67.4667 39.2925 68.2528 35.9492 63.0271C34.5413 60.6582 32.8359 58.4796 30.8747 56.5444C26.6138 52.3747 26.7604 48.8869 26.9597 44.4869V44.4855ZM85.5369 85.0667H3.45494L3.45495 81.2533C3.4486 77.4979 6.28393 74.3471 10.0171 73.9611L28.5867 72.0133C29.28 75.2209 32.1998 82.1333 44.4959 82.1333C56.7921 82.1333 59.7119 75.2224 60.4052 72.0133L78.9748 73.9699C82.7046 74.3556 85.5388 77.5013 85.5369 81.2533V85.0667Z" fill="#111974"/>
</svg>
