<svg width="40" height="38" viewBox="0 0 40 38" fill="none" xmlns="http://www.w3.org/2000/svg">
<path d="M18.2626 25.1094C18.562 24.8267 18.562 24.3691 18.2626 24.0864C17.9629 23.8045 17.4774 23.8045 17.1774 24.0864C16.8784 24.3691 16.8784 24.8267 17.1774 25.1094C17.4774 25.3913 17.9629 25.3913 18.2626 25.1094Z" fill="#DBBB2C"/>
<path d="M10.3438 7.95091C10.3438 12.335 14.1238 15.9021 18.77 15.9021C23.4163 15.9021 27.1963 12.335 27.1963 7.95091C27.1963 3.56678 23.4163 0 18.77 0C14.1238 0 10.3438 3.56678 10.3438 7.95091ZM25.6644 7.95091C25.6644 11.538 22.5716 14.4564 18.77 14.4564C14.9684 14.4564 11.8756 11.538 11.8756 7.95091C11.8756 4.36408 14.9684 1.44575 18.77 1.44575C22.5716 1.44575 25.6644 4.36408 25.6644 7.95091Z" fill="#53A1F6"/>
<path d="M30.6376 36.8053C30.3406 37.0877 29.8572 37.0908 29.5564 36.8112L25.8426 33.3588C25.2116 32.7634 25.0197 31.882 25.2972 31.1157L24.4983 30.3888C24.0682 29.9968 23.5019 29.7807 22.9033 29.7807H12.7198C10.9131 29.7807 9.20552 29.126 7.91099 27.9373C7.85771 27.8884 8.31536 28.3971 0.963623 20.1061C-0.126778 18.8888 0.0363503 17.0609 1.32759 16.0309C2.61074 15.0105 4.53294 15.157 5.62633 16.3534L10.1466 20.7373C10.7173 20.0744 11.5878 19.6612 12.5282 19.6612H21.0703C22.2858 19.1814 23.5756 18.9385 24.9063 18.9385C28.595 18.9385 31.8159 20.5461 33.5445 23.5602C34.2727 23.43 35.0408 23.6379 35.5933 24.1592L39.2374 27.608C39.5349 27.8896 39.5355 28.3451 39.2386 28.6275L30.6376 36.8053ZM24.9066 20.384C23.7333 20.384 22.5989 20.6068 21.5342 21.0463C21.4373 21.0864 21.3328 21.107 21.2271 21.107H12.5282C11.6976 21.107 10.996 21.7461 10.996 22.5525C10.996 23.3498 11.6832 23.9982 12.5282 23.9982H18.7782C19.2011 23.9982 19.5441 24.3219 19.5441 24.721C19.5441 25.1203 19.2011 25.4437 18.7782 25.4437H12.5282C10.8386 25.4437 9.46412 24.1468 9.46412 22.5525C9.46412 22.4254 9.4737 22.2994 9.49106 22.1746C5.11839 17.9333 4.5018 17.3374 4.47547 17.3077C3.92952 16.6997 2.96034 16.6226 2.31562 17.1355C1.6703 17.6503 1.58859 18.5643 2.13603 19.1757L9.00677 26.9262C10.0101 27.835 11.3273 28.3352 12.7198 28.3352H22.9033C23.9012 28.3352 24.8458 28.6953 25.5624 29.3486L26.2134 29.9414L32.2146 24.279C30.8121 21.7961 28.1802 20.384 24.9066 20.384ZM34.5092 25.1808C34.2566 24.9424 33.8686 24.8995 33.5606 25.0791C33.4281 25.1553 33.8088 24.8283 26.9258 31.314C26.6196 31.6029 26.636 32.0633 26.9216 32.3327L30.0877 35.2759L37.6145 28.1194L34.5092 25.1808Z" fill="#111974"/>
<path d="M17.8468 3.61364V4.46064C16.9551 4.75888 16.3146 5.56239 16.3146 6.50485C16.3146 7.70037 17.3455 8.67333 18.6128 8.67333C19.0351 8.67333 19.3788 8.99756 19.3788 9.39606C19.3788 9.79457 19.0351 10.1188 18.6128 10.1188C18.2856 10.1188 17.9321 9.92477 17.6181 9.57202C17.3458 9.26643 16.8627 9.22717 16.5388 9.4839C16.2149 9.74091 16.173 10.1967 16.4454 10.5023C16.8549 10.9618 17.3365 11.2821 17.8468 11.4437V12.2873C17.8468 12.6866 18.1899 13.01 18.6128 13.01C19.0357 13.01 19.3788 12.6866 19.3788 12.2873V11.4403C20.2705 11.1418 20.911 10.3382 20.911 9.39606C20.911 8.20027 19.8801 7.22758 18.6128 7.22758C18.1905 7.22758 17.8468 6.90336 17.8468 6.50485C17.8468 6.10635 18.1905 5.78184 18.6128 5.78184C18.8843 5.78184 19.1707 5.9126 19.4413 6.15973C19.7454 6.43735 20.2303 6.42973 20.5246 6.14306C20.8188 5.85612 20.8107 5.39858 20.5069 5.12096C20.1181 4.76594 19.729 4.56514 19.3788 4.45556V3.61364C19.3788 3.21429 19.0357 2.89062 18.6128 2.89062C18.1899 2.89062 17.8468 3.21429 17.8468 3.61364Z" fill="#53A1F6"/>
</svg>
