<svg width="45" height="38" viewBox="0 0 45 38" fill="none" xmlns="http://www.w3.org/2000/svg">
<path d="M4.71271 21.293C4.2374 21.293 3.85156 21.6518 3.85156 22.0938C3.85156 22.5357 4.2374 22.8945 4.71271 22.8945C5.18802 22.8945 5.57385 22.5357 5.57385 22.0938C5.57385 21.6518 5.18802 21.293 4.71271 21.293Z" fill="#111974"/>
<path d="M39.962 24.0698L31.8438 26.6651C31.8798 26.4793 31.9 26.2897 31.9 26.0974C31.9 24.3313 30.355 22.8942 28.4555 22.8942H22.8789C22.7309 22.8942 22.5849 22.8589 22.4561 22.7913L17.9066 20.4118C17.0071 19.9404 15.9848 19.6911 14.9504 19.6911H8.84581C8.4906 18.7592 7.53326 18.0898 6.41075 18.0898H1.24395C0.768305 18.0898 0.382812 18.4483 0.382812 18.8906V33.3044C0.382812 33.7467 0.768305 34.1052 1.24395 34.1052H6.41075C7.50769 34.1052 8.44821 33.4643 8.82159 32.564C9.79643 32.6766 10.9243 32.9447 11.6331 33.3401L16.1365 35.8529C17.8427 36.805 19.796 37.3083 21.786 37.3083C23.363 37.3083 24.8908 37.0005 26.3275 36.3937L42.4001 29.8126C44.1802 29.141 45.0592 27.155 44.0417 25.4045C43.2932 24.1164 41.5403 23.5433 39.962 24.0698ZM7.27189 31.7066C7.26987 32.1464 6.88404 32.5036 6.41075 32.5036H2.10508V19.6914H6.41075C6.88539 19.6914 7.27189 20.0505 7.27189 20.4922V31.7066ZM41.7459 28.3314C41.7368 28.3346 41.7277 28.3383 41.7186 28.3418C41.7186 28.3418 25.6221 34.9326 25.6191 34.9338C24.4064 35.4468 23.1168 35.7068 21.786 35.7068C20.1082 35.7068 18.4613 35.2826 17.0229 34.4796L12.5191 31.9669C11.555 31.4292 10.1745 31.1013 8.99416 30.97V21.293H14.9504C15.6891 21.293 16.4191 21.4707 17.0619 21.8075L21.6115 24.1871C21.997 24.3891 22.4356 24.4961 22.8789 24.4961H28.4555C29.4051 24.4961 30.1777 25.2143 30.1777 26.0977C30.1777 26.9776 29.4047 27.6993 28.4555 27.6993H19.7015C19.2258 27.6993 18.8404 28.0577 18.8404 28.5C18.8404 28.942 19.2258 29.3005 19.7015 29.3005H28.4555C29.0202 29.3005 29.5763 29.1701 30.0698 28.9255C30.0698 28.9255 40.5362 25.5797 40.5403 25.5784C41.3119 25.3194 42.1845 25.5772 42.5266 26.1659C43.0396 27.0483 42.6154 28.0077 41.7459 28.3314Z" fill="#111974"/>
<path d="M25.4627 19.7281C25.6248 19.8585 25.8256 19.9236 26.0268 19.9236C26.2279 19.9236 26.4291 19.8585 26.5909 19.7281C33.6168 14.0657 37.9628 11.2 37.9628 6.74693C37.9628 3.22411 35.2809 0.304688 31.5131 0.304688C29.0387 0.304688 27.1439 1.63099 25.9235 3.62137C24.7058 1.63537 22.813 0.304688 20.3349 0.304688C17.4504 0.304688 15.0389 2.04295 14.1913 4.73277C14.0574 5.15725 14.3191 5.60206 14.7756 5.72656C15.232 5.85106 15.7104 5.60769 15.8439 5.18321C16.4712 3.19252 18.2339 1.90626 20.3349 1.90626C22.7915 1.90626 24.5147 3.9348 25.0936 5.82353C25.1969 6.17043 25.5367 6.41067 25.9235 6.41067C26.3107 6.41067 26.6501 6.17043 26.7533 5.82353C26.7651 5.78443 27.9613 1.90626 31.5131 1.90626C34.2082 1.90626 36.2406 3.98704 36.2406 6.74693C36.2406 10.3092 32.496 12.8773 26.0261 18.0649C22.0841 14.9168 18.9527 12.7009 17.1729 10.5331C16.8843 10.1815 16.3441 10.114 15.966 10.3824C15.5879 10.6508 15.5156 11.1531 15.8039 11.505C17.81 13.9484 21.1967 16.2894 25.4627 19.7281Z" fill="#53A1F6"/>
<path d="M14.9392 7.35938C14.4639 7.35938 14.0781 7.71816 14.0781 8.16016C14.0781 8.60215 14.4639 8.96094 14.9392 8.96094C15.4145 8.96094 15.8003 8.60215 15.8003 8.16016C15.8003 7.71816 15.4145 7.35938 14.9392 7.35938Z" fill="#53A1F6"/>
</svg>
