<svg width="89" height="88" viewBox="0 0 89 88" fill="none" xmlns="http://www.w3.org/2000/svg">
<path d="M1.11915 81.8822C0.549034 83.2561 0.707441 84.8247 1.5407 86.0566C2.37397 87.2885 3.77041 88.0186 5.25692 87.9996H84.2277C85.7143 88.0181 87.1106 87.2876 87.9438 86.0555C88.777 84.8234 88.9354 83.2548 88.3655 81.8808C80.194 62.543 66.7825 59.312 62.3311 58.7737V56.782C65.6114 54.0924 68.2382 50.6922 70.013 46.8381C73.9643 47.442 77.6687 44.7612 78.3329 40.8172C78.9972 36.8733 76.3755 33.1257 72.4447 32.4004C71.0563 18.8915 60.1458 8.347 46.6053 7.42774C45.4019 5.87455 44.4184 5.39496 46.0541 2.12286C46.2882 1.6539 46.2545 1.0956 45.9656 0.658277C45.6768 0.220953 45.1767 -0.0289577 44.6538 0.00268392C44.1309 0.0343256 43.6646 0.342712 43.4305 0.811678C41.8314 4.01484 42.1113 5.94495 42.9541 7.4248C29.3831 8.30816 18.431 18.8636 17.04 32.4004C13.0964 33.1143 10.4605 36.8697 11.1276 40.8238C11.7948 44.778 15.5168 47.4593 19.476 46.8381C21.2496 50.6917 23.8748 54.0919 27.1535 56.782V58.7737C22.7021 59.312 9.29062 62.543 1.11915 81.8822ZM85.6656 83.0233C85.8538 83.4915 85.7921 84.0233 85.5017 84.4359C85.2113 84.8486 84.7317 85.0859 84.2277 85.0663H5.25692C4.75264 85.0867 4.27251 84.8495 3.98192 84.4367C3.69133 84.0238 3.62999 83.4915 3.81903 83.0233C11.2283 65.4895 23.0245 62.3083 27.1535 61.7305V64.5332C27.1535 74.2533 35.0283 82.133 44.7423 82.133C54.4563 82.133 62.3311 74.2533 62.3311 64.5332V61.7305C66.4586 62.3069 78.2563 65.488 85.6656 83.0233ZM75.5227 39.6002C75.5227 42.0222 73.5665 43.9888 71.146 44.0001C72.0662 41.2482 72.5494 38.3689 72.5781 35.4672C74.3349 36.0824 75.5143 37.7377 75.5227 39.6002ZM13.9619 39.6002C13.9697 37.7372 15.1493 36.0811 16.9066 35.4657C16.9351 38.3679 17.4183 41.2477 18.3386 44.0001C15.9181 43.9888 13.9619 42.0222 13.9619 39.6002ZM19.8248 35.2002C19.8402 21.4364 30.9871 10.2825 44.7423 10.2672C44.7423 12.9453 43.5067 13.1887 43.2414 13.2005C42.449 13.2271 41.8182 13.8738 41.8108 14.6671C41.8108 15.4771 42.4671 16.1338 43.2766 16.1338C44.776 16.1338 47.577 14.9267 47.6591 10.4534C60.9515 12.0212 70.6317 23.8166 69.5832 37.1683C68.5347 50.5199 57.1321 60.6576 43.7582 60.1287C30.3842 59.5997 19.8169 48.593 19.8248 35.2002ZM35.9479 61.6205C41.6524 63.5491 47.8322 63.5491 53.5367 61.6205V64.5332C53.5367 69.3933 49.5993 73.3331 44.7423 73.3331C39.8853 73.3331 35.9479 69.3933 35.9479 64.5332V61.6205ZM33.0164 60.4471V64.5332C33.0164 71.0133 38.2663 76.2664 44.7423 76.2664C51.2183 76.2664 56.4682 71.0133 56.4682 64.5332V60.4413C57.4761 59.9697 58.455 59.4383 59.3997 58.85V64.5332C59.3997 72.6333 52.8373 79.1997 44.7423 79.1997C36.6473 79.1997 30.085 72.6333 30.085 64.5332V58.85C31.0296 59.4383 32.0085 59.9697 33.0164 60.4413V60.4471Z" fill="#111974"/>
<path d="M44.7445 55.7329C50.4008 55.7329 55.0046 51.7861 55.0046 46.9329C55.0046 42.0796 50.4008 38.1328 44.7445 38.1328C39.0882 38.1328 34.4844 42.0796 34.4844 46.9329C34.4844 51.7861 39.0882 55.7329 44.7445 55.7329ZM44.7445 41.0662C48.7855 41.0662 52.0732 43.6974 52.0732 46.9329C52.0732 50.1683 48.7855 52.7996 44.7445 52.7996C40.7035 52.7996 37.4158 50.1683 37.4158 46.9329C37.4158 43.6974 40.7035 41.0662 44.7445 41.0662Z" fill="#53A1F6"/>
<path d="M44.7409 49.8687C47.0861 49.8687 49.1381 48.4973 49.1381 46.9352C49.1379 46.2148 48.6149 45.6011 47.904 45.4873C47.193 45.3735 46.5048 45.7932 46.28 46.4776C45.3445 47.0877 44.1374 47.0877 43.2019 46.4776C42.9771 45.7932 42.2888 45.3735 41.5779 45.4873C40.867 45.6011 40.3439 46.2148 40.3438 46.9352C40.3438 48.4973 42.3958 49.8687 44.7409 49.8687Z" fill="#53A1F6"/>
</svg>
