<svg width="181" height="161" viewBox="0 0 181 161" fill="none" xmlns="http://www.w3.org/2000/svg">
<rect x="0.046875" y="154.574" width="6.42703" height="6.42703" fill="#DEE3EF"/>
<rect x="0.046875" y="137.434" width="6.42703" height="6.42703" fill="#DEE3EF"/>
<rect x="0.046875" y="120.297" width="6.42703" height="6.42703" fill="#DEE3EF"/>
<rect x="0.046875" y="103.156" width="6.42703" height="6.42703" fill="#DEE3EF"/>
<rect x="0.046875" y="86.0156" width="6.42703" height="6.42703" fill="#DEE3EF"/>
<rect x="0.046875" y="68.8789" width="6.42703" height="6.42703" fill="#DEE3EF"/>
<rect x="0.046875" y="51.7422" width="6.42703" height="6.42703" fill="#DEE3EF"/>
<rect x="0.046875" y="34.6016" width="6.42703" height="6.42703" fill="#DEE3EF"/>
<rect x="0.046875" y="17.4609" width="6.42703" height="6.42703" fill="#DEE3EF"/>
<rect x="0.046875" y="0.324219" width="6.42703" height="6.42703" fill="#DEE3EF"/>
<rect x="19.3203" y="154.574" width="6.42703" height="6.42703" fill="#DEE3EF"/>
<rect x="19.3203" y="137.434" width="6.42703" height="6.42703" fill="#DEE3EF"/>
<rect x="19.3203" y="120.297" width="6.42703" height="6.42703" fill="#DEE3EF"/>
<rect x="19.3203" y="103.156" width="6.42703" height="6.42703" fill="#DEE3EF"/>
<rect x="19.3203" y="86.0156" width="6.42703" height="6.42703" fill="#DEE3EF"/>
<rect x="19.3203" y="68.8789" width="6.42703" height="6.42703" fill="#DEE3EF"/>
<rect x="19.3203" y="51.7422" width="6.42703" height="6.42703" fill="#DEE3EF"/>
<rect x="19.3203" y="34.6016" width="6.42703" height="6.42703" fill="#DEE3EF"/>
<rect x="19.3203" y="17.4609" width="6.42703" height="6.42703" fill="#DEE3EF"/>
<rect x="19.3203" y="0.324219" width="6.42703" height="6.42703" fill="#DEE3EF"/>
<rect x="38.6094" y="154.574" width="6.42703" height="6.42703" fill="#DEE3EF"/>
<rect x="38.6094" y="137.434" width="6.42703" height="6.42703" fill="#DEE3EF"/>
<rect x="38.6094" y="120.297" width="6.42703" height="6.42703" fill="#DEE3EF"/>
<rect x="38.6094" y="103.156" width="6.42703" height="6.42703" fill="#DEE3EF"/>
<rect x="38.6094" y="86.0156" width="6.42703" height="6.42703" fill="#DEE3EF"/>
<rect x="38.6094" y="68.8789" width="6.42703" height="6.42703" fill="#DEE3EF"/>
<rect x="38.6094" y="51.7422" width="6.42703" height="6.42703" fill="#DEE3EF"/>
<rect x="38.6094" y="34.6016" width="6.42703" height="6.42703" fill="#DEE3EF"/>
<rect x="38.6094" y="17.4609" width="6.42703" height="6.42703" fill="#DEE3EF"/>
<rect x="38.6094" y="0.324219" width="6.42703" height="6.42703" fill="#DEE3EF"/>
<rect x="57.8906" y="154.574" width="6.42703" height="6.42703" fill="#DEE3EF"/>
<rect x="57.8906" y="137.434" width="6.42703" height="6.42703" fill="#DEE3EF"/>
<rect x="57.8906" y="120.297" width="6.42703" height="6.42703" fill="#DEE3EF"/>
<rect x="57.8906" y="103.156" width="6.42703" height="6.42703" fill="#DEE3EF"/>
<rect x="57.8906" y="86.0156" width="6.42703" height="6.42703" fill="#DEE3EF"/>
<rect x="57.8906" y="68.8789" width="6.42703" height="6.42703" fill="#DEE3EF"/>
<rect x="57.8906" y="51.7422" width="6.42703" height="6.42703" fill="#DEE3EF"/>
<rect x="57.8906" y="34.6016" width="6.42703" height="6.42703" fill="#DEE3EF"/>
<rect x="57.8906" y="17.4609" width="6.42703" height="6.42703" fill="#DEE3EF"/>
<rect x="57.8906" y="0.324219" width="6.42703" height="6.42703" fill="#DEE3EF"/>
<rect x="77.1719" y="154.574" width="6.42703" height="6.42703" fill="#DEE3EF"/>
<rect x="77.1719" y="137.434" width="6.42703" height="6.42703" fill="#DEE3EF"/>
<rect x="77.1719" y="120.297" width="6.42703" height="6.42703" fill="#DEE3EF"/>
<rect x="77.1719" y="103.156" width="6.42703" height="6.42703" fill="#DEE3EF"/>
<rect x="77.1719" y="86.0156" width="6.42703" height="6.42703" fill="#DEE3EF"/>
<rect x="77.1719" y="68.8789" width="6.42703" height="6.42703" fill="#DEE3EF"/>
<rect x="77.1719" y="51.7422" width="6.42703" height="6.42703" fill="#DEE3EF"/>
<rect x="77.1719" y="34.6016" width="6.42703" height="6.42703" fill="#DEE3EF"/>
<rect x="77.1719" y="17.4609" width="6.42703" height="6.42703" fill="#DEE3EF"/>
<rect x="77.1719" y="0.324219" width="6.42703" height="6.42703" fill="#DEE3EF"/>
<rect x="96.4531" y="154.574" width="6.42703" height="6.42703" fill="#DEE3EF"/>
<rect x="96.4531" y="137.434" width="6.42703" height="6.42703" fill="#DEE3EF"/>
<rect x="96.4531" y="120.297" width="6.42703" height="6.42703" fill="#DEE3EF"/>
<rect x="96.4531" y="103.156" width="6.42703" height="6.42703" fill="#DEE3EF"/>
<rect x="96.4531" y="86.0156" width="6.42703" height="6.42703" fill="#DEE3EF"/>
<rect x="96.4531" y="68.8789" width="6.42703" height="6.42703" fill="#DEE3EF"/>
<rect x="96.4531" y="51.7422" width="6.42703" height="6.42703" fill="#DEE3EF"/>
<rect x="96.4531" y="34.6016" width="6.42703" height="6.42703" fill="#DEE3EF"/>
<rect x="96.4531" y="17.4609" width="6.42703" height="6.42703" fill="#DEE3EF"/>
<rect x="96.4531" y="0.324219" width="6.42703" height="6.42703" fill="#DEE3EF"/>
<rect x="115.734" y="154.574" width="6.42703" height="6.42703" fill="#DEE3EF"/>
<rect x="115.734" y="137.434" width="6.42703" height="6.42703" fill="#DEE3EF"/>
<rect x="115.734" y="120.297" width="6.42703" height="6.42703" fill="#DEE3EF"/>
<rect x="115.734" y="103.156" width="6.42703" height="6.42703" fill="#DEE3EF"/>
<rect x="115.734" y="86.0156" width="6.42703" height="6.42703" fill="#DEE3EF"/>
<rect x="115.734" y="68.8789" width="6.42703" height="6.42703" fill="#DEE3EF"/>
<rect x="115.734" y="51.7422" width="6.42703" height="6.42703" fill="#DEE3EF"/>
<rect x="115.734" y="34.6016" width="6.42703" height="6.42703" fill="#DEE3EF"/>
<rect x="115.734" y="17.4609" width="6.42703" height="6.42703" fill="#DEE3EF"/>
<rect x="115.734" y="0.324219" width="6.42703" height="6.42703" fill="#DEE3EF"/>
<rect x="135.016" y="154.574" width="6.42703" height="6.42703" fill="#DEE3EF"/>
<rect x="135.016" y="137.434" width="6.42703" height="6.42703" fill="#DEE3EF"/>
<rect x="135.016" y="120.297" width="6.42703" height="6.42703" fill="#DEE3EF"/>
<rect x="135.016" y="103.156" width="6.42703" height="6.42703" fill="#DEE3EF"/>
<rect x="135.016" y="86.0156" width="6.42703" height="6.42703" fill="#DEE3EF"/>
<rect x="135.016" y="68.8789" width="6.42703" height="6.42703" fill="#DEE3EF"/>
<rect x="135.016" y="51.7422" width="6.42703" height="6.42703" fill="#DEE3EF"/>
<rect x="135.016" y="34.6016" width="6.42703" height="6.42703" fill="#DEE3EF"/>
<rect x="135.016" y="17.4609" width="6.42703" height="6.42703" fill="#DEE3EF"/>
<rect x="135.016" y="0.324219" width="6.42703" height="6.42703" fill="#DEE3EF"/>
<rect x="154.297" y="154.574" width="6.42703" height="6.42703" fill="#DEE3EF"/>
<rect x="154.297" y="137.434" width="6.42703" height="6.42703" fill="#DEE3EF"/>
<rect x="154.297" y="120.297" width="6.42703" height="6.42703" fill="#DEE3EF"/>
<rect x="154.297" y="103.156" width="6.42703" height="6.42703" fill="#DEE3EF"/>
<rect x="154.297" y="86.0156" width="6.42703" height="6.42703" fill="#DEE3EF"/>
<rect x="154.297" y="68.8789" width="6.42703" height="6.42703" fill="#DEE3EF"/>
<rect x="154.297" y="51.7422" width="6.42703" height="6.42703" fill="#DEE3EF"/>
<rect x="154.297" y="34.6016" width="6.42703" height="6.42703" fill="#DEE3EF"/>
<rect x="154.297" y="17.4609" width="6.42703" height="6.42703" fill="#DEE3EF"/>
<rect x="154.297" y="0.324219" width="6.42703" height="6.42703" fill="#DEE3EF"/>
<rect x="173.578" y="154.574" width="6.42703" height="6.42703" fill="#DEE3EF"/>
<rect x="173.578" y="137.434" width="6.42703" height="6.42703" fill="#DEE3EF"/>
<rect x="173.578" y="120.297" width="6.42703" height="6.42703" fill="#DEE3EF"/>
<rect x="173.578" y="103.156" width="6.42703" height="6.42703" fill="#DEE3EF"/>
<rect x="173.578" y="86.0156" width="6.42703" height="6.42703" fill="#DEE3EF"/>
<rect x="173.578" y="68.8789" width="6.42703" height="6.42703" fill="#DEE3EF"/>
<rect x="173.578" y="51.7422" width="6.42703" height="6.42703" fill="#DEE3EF"/>
<rect x="173.578" y="34.6016" width="6.42703" height="6.42703" fill="#DEE3EF"/>
<rect x="173.578" y="17.4609" width="6.42703" height="6.42703" fill="#DEE3EF"/>
<rect x="173.578" y="0.324219" width="6.42703" height="6.42703" fill="#DEE3EF"/>
</svg>
