<svg width="39" height="38" viewBox="0 0 39 38" fill="none" xmlns="http://www.w3.org/2000/svg">
<path d="M13.7459 10.5843L13.0648 10.8172C12.0137 11.1769 11.2295 12.0445 11.0181 13.0822L10.787 14.2249C10.6717 14.7909 10.8287 15.3705 11.218 15.815C11.6074 16.26 12.1816 16.5151 12.7931 16.5151H18.6968C19.3036 16.5151 19.8749 16.2633 20.2642 15.8242C20.6532 15.3855 20.8151 14.8111 20.7083 14.2483L20.4928 13.1116C20.2931 12.0576 19.5063 11.1759 18.4392 10.8105L17.7171 10.5636V9.55938C17.7171 9.53117 17.7142 9.50371 17.7099 9.47662C18.2367 8.97059 18.5384 8.28056 18.5384 7.57458V6.07838C18.5384 4.61788 17.2791 3.42969 15.7312 3.42969C14.1833 3.42969 12.9238 4.61788 12.9238 6.07838V7.62119C12.9238 8.34692 13.2409 9.00948 13.7509 9.49065C13.7479 9.51321 13.7459 9.536 13.7459 9.5593V10.5843ZM19.3312 13.3076L19.5467 14.4444C19.5918 14.682 19.5235 14.9245 19.3592 15.1097C19.1946 15.2953 18.9532 15.4018 18.6967 15.4018H12.7929C12.5345 15.4018 12.292 15.294 12.1274 15.106C11.9632 14.9184 11.8969 14.6738 11.9456 14.4343L12.1767 13.2916C12.3099 12.6376 12.8043 12.0905 13.4667 11.8639L13.9128 11.7114C13.924 11.7222 13.9352 11.7331 13.9474 11.7432C14.4557 12.1626 15.0934 12.3723 15.7315 12.3722C16.3687 12.3722 17.0062 12.1629 17.5147 11.7443C17.533 11.7293 17.5498 11.713 17.5659 11.6961L18.0365 11.8571C18.7093 12.0873 19.2053 12.6431 19.3312 13.3076ZM14.1037 6.07838C14.1037 5.23183 14.8337 4.54299 15.731 4.54299C16.4883 4.54299 17.1246 5.03433 17.3053 5.69637C17.2295 5.73133 17.1517 5.76435 17.072 5.79441C16.3466 6.06843 15.7607 6.03207 15.5933 5.92133C15.3264 5.74483 14.9586 5.8057 14.7715 6.05745C14.5845 6.3092 14.6491 6.65626 14.9158 6.83283C15.2039 7.0235 15.595 7.1188 16.0413 7.1188C16.4468 7.1188 16.8979 7.03931 17.3584 6.88204V7.57443C17.3584 7.99994 17.1719 8.41661 16.8466 8.71757C16.6961 8.85696 16.5236 8.96495 16.3384 9.03947C16.3254 9.04414 16.3126 9.04919 16.3001 9.05468C16.1099 9.12571 15.9066 9.16141 15.6989 9.15629C14.8192 9.14033 14.1037 8.45164 14.1037 7.62112V6.07838ZM15.6762 10.2695C15.6942 10.2698 15.7121 10.27 15.7301 10.27C16.0069 10.27 16.2781 10.2307 16.5372 10.1554V11.0459C16.0455 11.332 15.417 11.3318 14.9259 11.0455V10.157C15.1646 10.2252 15.416 10.2648 15.6762 10.2695Z" fill="#53A1F6"/>
<path d="M6.48055 26.043H24.8523C25.1782 26.043 25.4422 25.7938 25.4422 25.4863C25.4422 25.1788 25.1782 24.9297 24.8523 24.9297H6.48055C6.15467 24.9297 5.89062 25.1788 5.89062 25.4863C5.89062 25.7938 6.15467 26.043 6.48055 26.043Z" fill="#53A1F6"/>
<path d="M6.48055 29.0469H24.8523C25.1782 29.0469 25.4422 28.7977 25.4422 28.4902C25.4422 28.1827 25.1782 27.9336 24.8523 27.9336H6.48055C6.15467 27.9336 5.89062 28.1827 5.89062 28.4902C5.89062 28.7977 6.15467 29.0469 6.48055 29.0469Z" fill="#53A1F6"/>
<path d="M6.48055 32.0469H24.8523C25.1782 32.0469 25.4422 31.7977 25.4422 31.4902C25.4422 31.1827 25.1782 30.9336 24.8523 30.9336H6.48055C6.15467 30.9336 5.89062 31.1827 5.89062 31.4902C5.89062 31.7977 6.15467 32.0469 6.48055 32.0469Z" fill="#53A1F6"/>
<path d="M6.48055 35.0469H24.8523C25.1782 35.0469 25.4422 34.7977 25.4422 34.4902C25.4422 34.1827 25.1782 33.9336 24.8523 33.9336H6.48055C6.15467 33.9336 5.89062 34.1827 5.89062 34.4902C5.89062 34.7977 6.15467 35.0469 6.48055 35.0469Z" fill="#53A1F6"/>
<path d="M5.89062 19.4863C5.89062 19.7938 6.15467 20.043 6.48055 20.043H24.8523C25.1782 20.043 25.4422 19.7938 25.4422 19.4863C25.4422 19.1788 25.1782 18.9297 24.8523 18.9297H6.48055C6.15467 18.9297 5.89062 19.1789 5.89062 19.4863Z" fill="#53A1F6"/>
<path d="M6.48055 23.043H24.8523C25.1782 23.043 25.4422 22.7938 25.4422 22.4863C25.4422 22.1788 25.1782 21.9297 24.8523 21.9297H6.48055C6.15467 21.9297 5.89062 22.1788 5.89062 22.4863C5.89062 22.7938 6.15467 23.043 6.48055 23.043Z" fill="#53A1F6"/>
<path d="M4.29562 26.0471C4.62288 26.0471 4.88819 25.797 4.88819 25.4884C4.88819 25.1799 4.62288 24.9297 4.29562 24.9297C3.96836 24.9297 3.70312 25.1798 3.70312 25.4884C3.70312 25.797 3.96844 26.0471 4.29562 26.0471Z" fill="#53A1F6"/>
<path d="M4.29562 20.0432C4.62288 20.0432 4.88819 19.7931 4.88819 19.4845C4.88819 19.1759 4.62288 18.9258 4.29562 18.9258C3.96836 18.9258 3.70312 19.1759 3.70312 19.4845C3.70312 19.7931 3.96844 20.0432 4.29562 20.0432Z" fill="#53A1F6"/>
<path d="M4.29562 23.0432C4.62288 23.0432 4.88819 22.7931 4.88819 22.4845C4.88819 22.1759 4.62288 21.9258 4.29562 21.9258C3.96836 21.9258 3.70312 22.1759 3.70312 22.4845C3.70312 22.7931 3.96844 23.0432 4.29562 23.0432Z" fill="#53A1F6"/>
<path d="M4.29562 29.0471C4.62288 29.0471 4.88819 28.797 4.88819 28.4884C4.88819 28.1798 4.62288 27.9297 4.29562 27.9297C3.96836 27.9297 3.70312 28.1798 3.70312 28.4884C3.70312 28.797 3.96844 29.0471 4.29562 29.0471Z" fill="#53A1F6"/>
<path d="M4.29562 32.0471C4.62288 32.0471 4.88819 31.797 4.88819 31.4884C4.88819 31.1798 4.62288 30.9297 4.29562 30.9297C3.96836 30.9297 3.70312 31.1798 3.70312 31.4884C3.70312 31.7969 3.96844 32.0471 4.29562 32.0471Z" fill="#53A1F6"/>
<path d="M4.29562 35.051C4.62288 35.051 4.88819 34.8009 4.88819 34.4923C4.88819 34.1838 4.62288 33.9336 4.29562 33.9336C3.96836 33.9336 3.70312 34.1837 3.70312 34.4923C3.70312 34.8009 3.96844 35.051 4.29562 35.051Z" fill="#53A1F6"/>
<path d="M37.7281 8.76691C37.4901 8.48265 37.2652 8.21404 37.1564 7.96659C37.039 7.69948 36.9928 7.34656 36.9438 6.97279C36.858 6.31803 36.7608 5.5759 36.2119 5.05807C35.6631 4.54024 34.8765 4.44851 34.1826 4.36753C33.7864 4.32137 33.4122 4.27773 33.1292 4.16699C32.8668 4.06435 32.5823 3.85223 32.2809 3.62756C31.8663 3.31844 31.4104 2.97903 30.8712 2.82502V2.65662C30.8713 1.19182 29.6082 0 28.0556 0H3.47981C1.92721 0 0.664062 1.19182 0.664062 2.65669V4.80528C0.664062 5.11277 0.928113 5.36193 1.25399 5.36193C1.57986 5.36193 1.84391 5.11277 1.84391 4.80528V2.65669C1.84391 1.80562 2.57778 1.1133 3.47981 1.1133H28.0556C28.9576 1.1133 29.6915 1.80562 29.6915 2.65669V2.82517C29.1525 2.97925 28.6967 3.31851 28.2821 3.62764C27.9808 3.85223 27.6962 4.06442 27.434 4.16707C27.1509 4.27773 26.7767 4.32137 26.3805 4.36761C25.6866 4.44851 24.9001 4.54024 24.3512 5.05807C23.8022 5.57598 23.705 6.3181 23.6192 6.97287C23.5703 7.34656 23.524 7.69955 23.4067 7.96667C23.2979 8.21412 23.073 8.48272 22.8349 8.76698C22.3941 9.29327 21.8946 9.88978 21.8946 10.6534C21.8946 11.4171 22.3942 12.0136 22.8349 12.5399C23.0729 12.8241 23.2979 13.0927 23.4067 13.3402C23.524 13.6073 23.5703 13.9602 23.6192 14.3341C23.705 14.9887 23.8022 15.7309 24.3511 16.2487C24.9 16.7666 25.6865 16.8583 26.3804 16.9392C26.5873 16.9634 26.7878 16.987 26.9729 17.0197V25.4338C26.9729 25.7635 27.1679 26.058 27.482 26.2023C27.796 26.3468 28.162 26.3101 28.4374 26.1067L29.6914 25.1802V35.3439C29.6914 36.1949 28.9575 36.8873 28.0555 36.8873H3.47981C2.57778 36.8873 1.84391 36.1949 1.84391 35.3439V7.25653C1.84391 6.94904 1.57986 6.69989 1.25399 6.69989C0.928113 6.69989 0.664062 6.94904 0.664062 7.25653V35.3438C0.664062 36.8087 1.92721 38.0005 3.47981 38.0005H28.0556C29.6082 38.0005 30.8713 36.8087 30.8713 35.3438V25.1801L32.1253 26.1066C32.289 26.2275 32.4849 26.2896 32.6829 26.2896C32.8179 26.2896 32.9538 26.2607 33.0813 26.2022C33.3954 26.0579 33.5906 25.7634 33.5906 25.4337V19.2217C33.5906 18.9142 33.3266 18.6651 33.0007 18.6651C32.6748 18.6651 32.4108 18.9142 32.4108 19.2217V24.9036L30.8426 23.7451C30.6841 23.6267 30.4848 23.5615 30.2813 23.5615C30.0778 23.5615 29.8785 23.6267 29.7225 23.7432L28.1526 24.903V17.5831C28.1954 17.6147 28.2385 17.6467 28.282 17.6791C28.8399 18.0951 29.4721 18.5663 30.2815 18.5663C31.0908 18.5663 31.723 18.095 32.2809 17.6792C32.5822 17.4546 32.8668 17.2424 33.1291 17.1397C33.4122 17.029 33.7863 16.9854 34.1825 16.9392C34.8764 16.8583 35.6629 16.7665 36.2119 16.2487C36.7607 15.7308 36.858 14.9887 36.9438 14.334C36.9928 13.9602 37.039 13.6072 37.1564 13.3401C37.2652 13.0927 37.49 12.8241 37.7281 12.5398C38.1689 12.0135 38.6684 11.417 38.6684 10.6533C38.6684 9.8897 38.1688 9.2932 37.7281 8.76691ZM36.8024 11.8495C36.5249 12.1809 36.238 12.5235 36.0666 12.9136C35.8878 13.3204 35.8294 13.7662 35.7729 14.1973C35.7044 14.7203 35.6397 15.2142 35.3778 15.4614C35.1158 15.7085 34.5923 15.7695 34.038 15.8342C33.581 15.8875 33.1086 15.9425 32.6774 16.1112C32.2639 16.273 31.9009 16.5436 31.5497 16.8055C31.103 17.1384 30.6811 17.4529 30.2816 17.4529C29.8821 17.4529 29.4603 17.1384 29.0136 16.8055C28.6624 16.5437 28.2993 16.273 27.8859 16.1112C27.8574 16.1001 27.7586 16.0646 27.7373 16.0584C27.3474 15.9304 26.9303 15.8814 26.5252 15.8342C25.9709 15.7695 25.4474 15.7085 25.1854 15.4613C24.9236 15.2142 24.8588 14.7203 24.7903 14.1974C24.7338 13.7662 24.6755 13.3205 24.4967 12.9136C24.3252 12.5235 24.0384 12.1809 23.7609 11.8495C23.4081 11.4281 23.0747 11.0302 23.0747 10.6533C23.0747 10.2765 23.408 9.87857 23.7609 9.45715C24.0384 9.12576 24.3253 8.78316 24.4967 8.39306C24.6755 7.98634 24.7339 7.5405 24.7903 7.10936C24.8588 6.58641 24.9236 6.09247 25.1855 5.84532C25.4475 5.59817 25.971 5.53716 26.5253 5.47252C26.9823 5.41923 27.4547 5.36415 27.8859 5.19545C28.2993 5.03373 28.6624 4.76305 29.0136 4.5012C29.4594 4.16892 29.8805 3.85512 30.2793 3.85393C30.28 3.85393 30.2808 3.85401 30.2815 3.85401C30.2823 3.85401 30.2831 3.85393 30.2838 3.85393C30.6827 3.85505 31.1038 4.16892 31.5497 4.5012C31.9009 4.76298 32.2639 5.03373 32.6774 5.19545C33.1085 5.36415 33.581 5.4193 34.038 5.47252C34.5923 5.53716 35.1159 5.59824 35.3778 5.8454C35.6397 6.09255 35.7045 6.58641 35.773 7.10936C35.8294 7.5405 35.8878 7.98626 36.0666 8.39306C36.2381 8.78316 36.5249 9.12576 36.8024 9.45715C37.1552 9.87857 37.4885 10.2765 37.4885 10.6533C37.4885 11.0302 37.1553 11.4282 36.8024 11.8495Z" fill="#111974"/>
<path d="M34.0859 8.88594L32.0785 8.35001L30.9178 6.71421C30.7791 6.51887 30.5477 6.40234 30.2986 6.40234C30.0495 6.40234 29.818 6.51894 29.6794 6.71421L28.5187 8.35001L26.5111 8.88602C26.2713 8.95007 26.0822 9.12189 26.0053 9.34543C25.9284 9.56898 25.9745 9.81279 26.1285 9.9973L27.4187 11.5443L27.3386 13.5108C27.3289 13.7458 27.4434 13.9686 27.645 14.1069C27.7744 14.1956 27.9277 14.2415 28.0828 14.2415C28.1694 14.2415 28.2566 14.2271 28.3403 14.198L30.2984 13.5183L32.2564 14.198C32.4903 14.2793 32.7501 14.2452 32.9516 14.107C33.1532 13.9689 33.2679 13.7462 33.2583 13.5111L33.1783 11.5442L34.4685 9.99723C34.6225 9.8125 34.6686 9.56883 34.5915 9.34529C34.5149 9.12174 34.3258 8.94999 34.0859 8.88594ZM32.152 10.9747C32.043 11.1056 31.9866 11.2693 31.9933 11.4363L32.0545 12.9417L30.5559 12.4215C30.3898 12.3639 30.2069 12.3639 30.0412 12.4215L28.5424 12.9417L28.6037 11.4357C28.6103 11.2694 28.5538 11.1057 28.4446 10.9743L27.4571 9.79038L28.994 9.38017C29.164 9.33467 29.3118 9.23329 29.41 9.0948L30.2984 7.84272L31.1868 9.09465C31.2851 9.23321 31.4329 9.3346 31.6032 9.38024L33.1397 9.79038L32.152 10.9747Z" fill="#53A1F6"/>
</svg>
