<svg width="36" height="38" viewBox="0 0 36 38" fill="none" xmlns="http://www.w3.org/2000/svg">
<path d="M35.1059 10.2706L35.1047 10.2412C35.0873 9.87757 35.0756 9.49289 35.0686 9.06489C35.0359 6.97774 33.2775 5.2513 31.0653 5.13463C26.4529 4.89175 22.8848 3.47259 19.8361 0.668642L19.8101 0.645249C18.8157 -0.215083 17.3156 -0.215083 16.3209 0.645249L16.2949 0.668642C13.2462 3.47259 9.67812 4.89175 5.06573 5.13492C2.8538 5.2513 1.09516 6.97774 1.06241 9.06518C1.05567 9.49029 1.04374 9.87497 1.02629 10.2412L1.02446 10.3096C0.934778 14.7476 0.823371 20.2709 2.78157 25.2841C3.85831 28.041 5.48902 30.4375 7.6281 32.4073C10.0644 34.6507 13.2554 36.4318 17.1124 37.7007C17.2379 37.742 17.3683 37.7755 17.5011 37.8007C17.6884 37.8359 17.877 37.8535 18.0655 37.8535C18.254 37.8535 18.4429 37.8359 18.6299 37.8007C18.7627 37.7755 18.894 37.7417 19.0201 37.7002C22.8726 36.4289 26.0602 34.647 28.4943 32.4039C30.6325 30.4334 32.2632 28.0364 33.3409 25.2789C35.3064 20.2506 35.1953 14.717 35.1059 10.2706ZM31.1323 24.5104C29.067 29.7943 24.851 33.4231 18.2433 35.6035C18.2198 35.611 18.1947 35.6176 18.1686 35.6225C18.1004 35.6353 18.0309 35.6353 17.9618 35.6223C17.936 35.6173 17.9109 35.611 17.8877 35.6035C11.273 33.4271 7.05423 29.8004 4.99044 24.5162C3.18558 19.8951 3.2878 14.825 3.37809 10.3521L3.3787 10.3272C3.39707 9.94284 3.40931 9.54025 3.41604 9.09781C3.43073 8.17106 4.21303 7.4043 5.19703 7.3526C7.80715 7.21513 10.1002 6.73919 12.2071 5.89763C14.3113 5.05723 16.1802 3.87258 17.9198 2.2761C18.0083 2.20563 18.123 2.20534 18.2112 2.2761C19.9512 3.87258 21.82 5.05723 23.9239 5.89763C26.0308 6.73919 28.3239 7.21513 30.9343 7.3526C31.9183 7.4043 32.7006 8.17106 32.715 9.0981C32.722 9.54285 32.7343 9.94544 32.7526 10.3272C32.8426 14.8053 32.9424 19.8795 31.1323 24.5104Z" fill="#111974"/>
<path d="M18.0522 9.49219C12.5394 9.49219 8.05469 13.7242 8.05469 18.9256C8.05469 24.1274 12.5394 28.3594 18.0522 28.3594C23.5647 28.3594 28.0497 24.1274 28.0497 18.9256C28.0497 13.7242 23.5647 9.49219 18.0522 9.49219ZM18.0522 26.138C13.8374 26.138 10.4086 22.9026 10.4086 18.9256C10.4086 14.9487 13.8374 11.7133 18.0522 11.7133C22.2667 11.7133 25.6955 14.9487 25.6955 18.9256C25.6955 22.9026 22.2667 26.138 18.0522 26.138Z" fill="#53A1F6"/>
<path d="M20.9368 15.9974L16.2931 20.3792L15.0327 19.1899C14.573 18.7561 13.8277 18.7561 13.368 19.1899C12.9086 19.6237 12.9086 20.327 13.368 20.7605L15.4609 22.7353C15.6908 22.9522 15.9919 23.0605 16.2931 23.0605C16.5943 23.0605 16.8954 22.9522 17.1253 22.7353L22.6015 17.568C23.0609 17.1342 23.0609 16.4309 22.6015 15.9974C22.1418 15.5634 21.3965 15.5634 20.9368 15.9974Z" fill="#53A1F6"/>
</svg>
